<?xml version="1.0" standalone="no"?>
<!DOCTYPE svg PUBLIC "-//W3C//DTD SVG 1.1//EN" "http://www.w3.org/Graphics/SVG/1.1/DTD/svg11.dtd" >
<svg xmlns="http://www.w3.org/2000/svg" xmlns:xlink="http://www.w3.org/1999/xlink" version="1.1">
<metadata></metadata>
<defs>
<font id="unidreamledregular" horiz-adv-x="948" >
<font-face units-per-em="2048" ascent="1638" descent="-410" />
<missing-glyph horiz-adv-x="344" />
<glyph unicode="&#xd;" horiz-adv-x="344" />
<glyph unicode=" "  horiz-adv-x="344" />
<glyph unicode="&#x09;" horiz-adv-x="344" />
<glyph unicode="&#xa0;" horiz-adv-x="344" />
<glyph unicode="!" horiz-adv-x="344" d="M287 444l-230 144v616l230 230v-990zM287 0h-230v358h230v-358z" />
<glyph unicode="&#x22;" horiz-adv-x="665" d="M621 846h-228v588h228v-588zM272 846h-229v588h229v-588z" />
<glyph unicode="#" horiz-adv-x="1165" d="M1071 987l-20 -98h-228l-73 -344h227l-19 -99h-229l-90 -417h-98l88 417h-207l-90 -417h-96l86 417h-228l21 99h229l72 344h-230l21 98h231l88 418h99l-88 -418h208l86 418h99l-88 -418h229zM723 889h-207l-74 -344h209z" />
<glyph unicode="$" horiz-adv-x="946" d="M592 1499l-115 -127l-119 121v111l121 118l113 -114v-109zM889 1434l-254 -230h-320l-129 129l105 101h65l121 -113l113 113h299zM291 877l-232 -144v469l101 109l131 -133v-301zM829 717l-200 -101h-318l-196 103l198 127h318zM889 233l-98 -108l-129 133v334l227 110 v-469zM760 98l-98 -98h-80l-107 106l-123 -106h-295l258 229h320zM584 -182l-113 -111l-123 129v96l123 117l113 -123v-108z" />
<glyph unicode="%" horiz-adv-x="1658" d="M586 1329l-129 -125h-166l-127 125l98 105h227zM717 971l-107 -99l-125 125v177l125 131l107 -103v-231zM262 999l-131 -129l-102 99v233l106 103l127 -131v-175zM1403 1434l-461 -752l-125 229l316 523h270zM584 840l-99 -95h-227l-98 95l131 129h166zM1499 590 l-127 -125h-166l-129 125l101 102h225zM1630 231l-104 -100l-125 127v176l127 129l102 -100v-232zM1180 258l-136 -129l-100 100v234l105 100l131 -131v-174zM918 641l-383 -641h-269l389 641h263zM1497 100l-96 -100h-225l-101 100l131 129h166z" />
<glyph unicode="&#x26;" horiz-adv-x="1148" d="M760 1333l-129 -129h-314l-131 129l101 101h372zM287 874l-230 -143v473l101 101l129 -129v-302zM887 881l-115 -125l-113 127v149l129 131l99 -131v-151zM1178 719l-189 -103h-74l-112 115l112 115h76zM743 731l-110 -115h-176l-201 105l203 125h174zM885 231l-97 -98 l-129 125v332l113 112l113 -114v-357zM287 258l-129 -129l-101 100v473l230 -114v-330zM760 100l-101 -100h-372l-101 100l131 129h314z" />
<glyph unicode="'" horiz-adv-x="317" d="M272 846h-229v588h229v-588z" />
<glyph unicode="(" horiz-adv-x="573" d="M545 1434l-144 -230h-84l-131 129l101 101h258zM287 874l-230 -143v473l101 101l129 -129v-302zM287 258l-129 -129l-101 100v473l230 -114v-330zM545 0h-258l-101 100l131 129h84z" />
<glyph unicode=")" horiz-adv-x="573" d="M387 1333l-131 -129h-84l-143 230h258zM516 731l-229 115v330l127 129l102 -101v-473zM516 229l-102 -100l-127 129v301l229 143v-473zM387 100l-100 -100h-258l143 229h84z" />
<glyph unicode="*" horiz-adv-x="870" d="M549 1180l-119 -82l-113 88v276l117 82l115 -88v-276zM406 934l-244 -150l-133 58l12 141l264 154l101 -72v-131zM842 852l-111 -72l-276 152v137l102 64l266 -144z" />
<glyph unicode="+" horiz-adv-x="952" d="M586 864l-111 -119l-121 121v195l232 102v-299zM924 831l-97 -229h-213l-102 115l117 114h295zM444 719l-118 -117h-297l98 229h203zM586 373l-228 -101v301l117 115l111 -115v-200z" />
<glyph unicode="," horiz-adv-x="317" d="M272 -229h-229v587h229v-587z" />
<glyph unicode="-" horiz-adv-x="686" d="M659 836l-174 -226h-456l170 226h460z" />
<glyph unicode="." horiz-adv-x="409" d="M334 0h-230v358h230v-358z" />
<glyph unicode="/" horiz-adv-x="1193" d="M1167 1434l-462 -752l-127 229l317 523h272zM680 641l-383 -641h-268l387 641h264z" />
<glyph unicode="0" d="M760 1333l-129 -129h-314l-131 129l101 101h372zM891 731l-232 143v302l129 129l103 -101v-473zM287 874l-230 -143v473l101 101l129 -129v-302zM891 229l-103 -100l-129 129v330l232 114v-473zM287 258l-129 -129l-101 100v473l230 -114v-330zM760 100l-101 -100h-372 l-101 100l131 129h314z" />
<glyph unicode="1" horiz-adv-x="344" d="M308 775l-232 164v348l129 148l103 -116v-544zM312 123l-103 -131l-129 169v432l232 149v-619z" />
<glyph unicode="2" d="M760 1333l-129 -129h-314l-131 129l101 101h372zM891 731l-232 143v302l129 129l103 -101v-473zM831 717l-200 -101h-314l-202 101l202 129h314zM287 258l-129 -129l-101 100v473l230 -114v-330zM760 100l-101 -100h-372l-101 100l131 129h314z" />
<glyph unicode="3" d="M760 1333l-129 -129h-314l-131 129l101 101h372zM891 731l-232 143v302l129 129l103 -101v-473zM831 717l-200 -101h-314l-202 101l202 129h314zM891 229l-103 -100l-129 129v330l232 114v-473zM760 100l-101 -100h-372l-101 100l131 129h314z" />
<glyph unicode="4" d="M891 731l-232 143v302l129 129l103 -101v-473zM287 874l-230 -143v473l101 101l129 -129v-302zM831 717l-200 -101h-314l-202 101l202 129h314zM891 229l-103 -100l-129 129v330l232 114v-473z" />
<glyph unicode="5" d="M760 1333l-129 -129h-314l-131 129l101 101h372zM287 874l-230 -143v473l101 101l129 -129v-302zM831 717l-200 -101h-314l-202 101l202 129h314zM891 229l-103 -100l-129 129v330l232 114v-473zM760 100l-101 -100h-372l-101 100l131 129h314z" />
<glyph unicode="6" d="M760 1333l-129 -129h-314l-131 129l101 101h372zM287 874l-230 -143v473l101 101l129 -129v-302zM831 717l-200 -101h-314l-202 101l202 129h314zM891 229l-103 -100l-129 129v330l232 114v-473zM287 258l-129 -129l-101 100v473l230 -114v-330zM760 100l-101 -100h-372 l-101 100l131 129h314z" />
<glyph unicode="7" d="M760 1333l-129 -129h-314l-131 129l101 101h372zM891 731l-232 143v302l129 129l103 -101v-473zM891 229l-103 -100l-129 129v330l232 114v-473z" />
<glyph unicode="8" d="M760 1333l-129 -129h-314l-131 129l101 101h372zM891 731l-232 143v302l129 129l103 -101v-473zM287 874l-230 -143v473l101 101l129 -129v-302zM831 717l-200 -101h-314l-202 101l202 129h314zM891 229l-103 -100l-129 129v330l232 114v-473zM287 258l-129 -129 l-101 100v473l230 -114v-330zM760 100l-101 -100h-372l-101 100l131 129h314z" />
<glyph unicode="9" d="M760 1333l-129 -129h-314l-131 129l101 101h372zM891 731l-232 143v302l129 129l103 -101v-473zM287 874l-230 -143v473l101 101l129 -129v-302zM831 717l-200 -101h-314l-202 101l202 129h314zM891 229l-103 -100l-129 129v330l232 114v-473zM760 100l-101 -100h-372 l-101 100l131 129h314z" />
<glyph unicode=":" horiz-adv-x="344" d="M305 882h-230v303h230v-303zM309 265h-230v308h230v-308z" />
<glyph unicode=";" horiz-adv-x="344" d="M287 699h-230v304h230v-304zM287 -229h-230v636h230v-636z" />
<glyph unicode="&#x3c;" horiz-adv-x="628" d="M580 1194l-271 -455h-260l402 695h129v-240zM580 0h-140l-397 694h266l271 -469v-225z" />
<glyph unicode="=" d="M831 870l-200 -100h-314l-202 100l202 129h314zM831 532l-200 -100h-314l-202 100l202 130h314z" />
<glyph unicode="&#x3e;" horiz-adv-x="647" d="M586 739h-260l-271 455v240h129zM592 694l-397 -694h-140v225l271 469h266z" />
<glyph unicode="?" horiz-adv-x="831" d="M645 1333l-129 -129h-315l-201 230h545zM774 731l-229 143v302l129 129l100 -101v-473zM717 717l-201 -101h-315v230h315zM430 0h-229v358h229v-358z" />
<glyph unicode="@" horiz-adv-x="2079" d="M1161 163q-65 -75 -145.5 -120.5t-161.5 -45.5q-89 0 -173 52t-136.5 160t-52.5 237q0 159 81.5 318.5t202.5 239.5t235 80q87 0 166 -45.5t136 -138.5l34 155h179l-144 -671q-30 -140 -30 -155q0 -27 20.5 -46.5t49.5 -19.5q53 0 139 61q114 80 180.5 214.5t66.5 277.5 q0 167 -85.5 312t-255 232t-374.5 87q-234 0 -427.5 -109.5t-300 -314t-106.5 -438.5q0 -245 106.5 -422t308 -261.5t446.5 -84.5q262 0 439 88t265 214h181q-51 -105 -175 -214t-295 -172.5t-412 -63.5q-222 0 -409.5 57t-319.5 171.5t-199 263.5q-84 189 -84 408 q0 244 100 465q122 271 346.5 415t544.5 144q248 0 445.5 -101.5t311.5 -302.5q97 -173 97 -376q0 -290 -204 -515q-182 -202 -398 -202q-69 0 -111.5 21t-62.5 60q-13 25 -19 86zM677 434q0 -137 65 -213t149 -76q56 0 118 33.5t118.5 99.5t92.5 167.5t36 203.5 q0 136 -67.5 211t-164.5 75q-64 0 -120.5 -32.5t-109.5 -104.5t-85 -175t-32 -189z" />
<glyph unicode="A" d="M860 1434l-229 -230h-314l-231 230h774zM891 731l-232 143v302l232 229v-674zM287 874l-230 -143v674l230 -229v-302zM831 717l-200 -101h-314l-202 101l202 129h314zM891 0l-232 229v359l232 114v-702zM287 229l-230 -229v702l230 -114v-359z" />
<glyph unicode="B" d="M760 1333l-129 -129h-314l-231 230h573zM287 874l-230 -143v674l230 -229v-302zM891 731l-232 143v302l129 129l103 -101v-473zM831 717l-200 -101h-314l-202 101l202 129h314zM891 229l-103 -100l-129 129v330l232 114v-473zM287 258l-230 -229v673l230 -114v-330z M760 100l-101 -100h-573l231 229h314z" />
<glyph unicode="C" horiz-adv-x="860" d="M860 1434l-229 -230h-314l-131 129l101 101h573zM287 846l-230 -115v473l101 101l129 -129v-330zM287 258l-129 -129l-101 100v473l230 -143v-301zM860 0h-573l-101 100l131 129h314z" />
<glyph unicode="D" d="M760 1333l-129 -129h-314l-231 230h573zM287 874l-230 -143v674l230 -229v-302zM891 731l-232 143v302l129 129l103 -101v-473zM891 229l-103 -100l-129 129v330l232 114v-473zM287 258l-230 -229v673l230 -114v-330zM760 100l-101 -100h-573l231 229h314z" />
<glyph unicode="E" horiz-adv-x="860" d="M860 1434l-229 -230h-314l-231 230h774zM287 874l-230 -143v674l230 -229v-302zM831 717l-200 -101h-314l-202 101l202 129h314zM287 258l-230 -229v673l230 -114v-330zM860 0h-774l231 229h314z" />
<glyph unicode="F" horiz-adv-x="845" d="M860 1434l-229 -230h-314l-231 230h774zM287 874l-230 -143v674l230 -229v-302zM831 717l-200 -101h-314l-202 101l202 129h314zM287 229l-230 -229v702l230 -114v-359z" />
<glyph unicode="G" d="M760 1333l-129 -129h-314l-131 129l101 101h372zM287 874l-230 -143v473l101 101l129 -129v-302zM831 717l-200 -101h-144l-200 101l200 129h144zM891 229l-103 -100l-129 129v330l232 114v-473zM287 258l-129 -129l-101 100v473l230 -114v-330zM760 100l-101 -100h-372 l-101 100l131 129h314z" />
<glyph unicode="H" d="M891 731l-232 143v330l232 230v-703zM287 874l-230 -143v703l230 -230v-330zM831 717l-200 -101h-314l-202 101l202 129h314zM891 0l-232 229v359l232 114v-702zM287 229l-230 -229v702l230 -114v-359z" />
<glyph unicode="I" horiz-adv-x="344" d="M287 731l-230 143v330l230 230v-703zM287 0l-230 229v359l230 114v-702z" />
<glyph unicode="J" d="M891 731l-232 143v330l232 230v-703zM891 29l-232 229v330l232 114v-673zM287 258l-230 -229v673l230 -114v-330zM860 0h-774l231 229h314z" />
<glyph unicode="K" d="M891 1278l-234 -387l-264 -2l332 545h166v-156zM287 874l-230 -143v703l230 -230v-330zM831 717l-200 -101h-314l-202 101l202 129h314zM891 0l-232 229v359l232 114v-702zM287 229l-230 -229v702l230 -114v-359z" />
<glyph unicode="L" d="M287 874l-230 -143v703l230 -230v-330zM891 29l-232 229v330l232 114v-673zM287 258l-230 -229v673l230 -114v-330zM860 0h-774l231 229h314z" />
<glyph unicode="M" horiz-adv-x="1548" d="M1464 1434l-231 -230h-320l-139 144l-141 -144h-320l-227 230h1378zM287 874l-230 -143v674l230 -229v-302zM1491 731l-229 143v302l229 227v-672zM889 817l-115 -86l-115 86v359l113 116l117 -116v-359zM1491 0l-229 229v359l229 114v-702zM891 229l-117 -229l-115 229 v359l115 114l117 -114v-359zM287 229l-230 -229v702l230 -114v-359z" />
<glyph unicode="N" d="M760 1333l-129 -129h-314l-131 129l101 101h372zM891 731l-232 143v302l129 129l103 -101v-473zM287 874l-230 -143v473l101 101l129 -129v-302zM891 0l-232 258v330l232 114v-702zM287 201l-230 -201v702l230 -114v-387z" />
<glyph unicode="O" d="M760 1333l-129 -129h-314l-131 129l101 101h372zM891 731l-232 143v302l129 129l103 -101v-473zM287 874l-230 -143v473l101 101l129 -129v-302zM891 229l-103 -100l-129 129v330l232 114v-473zM287 258l-129 -129l-101 100v473l230 -114v-330zM760 100l-101 -100h-372 l-101 100l131 129h314z" />
<glyph unicode="P" d="M760 1333l-129 -129h-314l-231 230h573zM287 874l-230 -143v674l230 -229v-302zM891 731l-232 143v302l129 129l103 -101v-473zM831 717l-200 -101h-314l-202 101l202 129h314zM287 229l-230 -229v702l230 -114v-359z" />
<glyph unicode="Q" horiz-adv-x="950" d="M760 1333l-129 -129h-314l-131 129l101 101h372zM891 731l-232 143v302l129 129l103 -101v-473zM287 874l-230 -143v473l101 101l129 -129v-302zM891 295l-103 -102l-129 129v266l232 114v-407zM287 252l-129 -123l-101 100v473l230 -114v-336zM543 0h-256l-105 104 l137 123zM893 -293l-522 522h325l197 -194v-328z" />
<glyph unicode="R" d="M760 1333l-129 -129h-314l-231 230h573zM287 874l-230 -143v674l230 -229v-302zM891 731l-232 143v302l129 129l103 -101v-473zM831 717l-200 -101h-314l-202 101l202 129h314zM287 229l-230 -229v702l230 -114v-359zM1006 0l-336 227l-148 348h117l100 48z" />
<glyph unicode="S" d="M891 1434l-260 -230h-314l-131 129l101 101h604zM287 874l-230 -143v473l101 101l129 -129v-302zM831 717l-200 -101h-314l-202 101l202 129h314zM891 229l-103 -100l-129 129v330l232 114v-473zM760 100l-101 -100h-602l260 229h314z" />
<glyph unicode="T" horiz-adv-x="776" d="M805 1434l-160 -230h-113l-139 144l-147 -144h-117l-158 230h834zM504 858l-113 -127l-121 127v311l121 131l113 -129v-313zM504 127l-115 -127l-123 127v448l123 130l115 -130v-448z" />
<glyph unicode="U" d="M891 731l-232 143v330l232 230v-703zM287 874l-230 -143v703l230 -230v-330zM891 229l-103 -100l-129 129v330l232 114v-473zM287 258l-129 -129l-101 100v473l230 -114v-330zM760 100l-101 -100h-372l-101 100l131 129h314z" />
<glyph unicode="V" d="M891 731l-232 143v388l232 172v-703zM287 874l-230 -143v703l230 -172v-388zM891 705l-260 -705l-137 281l114 321zM465 276l-143 -276l-265 705l287 -105zM586 0h-226l117 227z" />
<glyph unicode="W" horiz-adv-x="1550" d="M1491 731l-229 115v358l229 230v-703zM891 846l-117 -115l-115 115v358l115 230l117 -230v-358zM287 846l-230 -115v703l230 -230v-358zM891 258l-115 -117l-114 117v358l112 86l117 -86v-358zM1493 231l-102 -98l-134 131v297l236 144v-474zM287 262l-131 -129l-99 98 v476l230 -148v-297zM1364 106l-104 -106h-977l-101 104l129 125h324l139 -139l139 139h320z" />
<glyph unicode="X" horiz-adv-x="894" d="M868 1194l-270 -455h-129v228l270 467h129v-240zM428 739h-127l-272 467v228h139l260 -467v-228zM868 0h-139l-262 459v235h131l270 -469v-225zM428 459l-266 -459h-133v236l266 458h133v-235z" />
<glyph unicode="Y" d="M891 731l-232 143v330l232 230v-703zM287 874l-230 -143v703l230 -230v-330zM831 717l-200 -101h-314l-202 101l202 129h314zM592 129l-119 -129l-117 129v444h236v-444z" />
<glyph unicode="Z" horiz-adv-x="892" d="M690 1434l-135 -230h-297l-227 230h659zM864 1198l-307 -524l-143 215l323 545h127v-236zM543 641l-332 -641h-182v217l258 442zM862 0h-612l121 229h260z" />
<glyph unicode="[" horiz-adv-x="587" d="M573 1434l-229 -230h-27l-231 230h487zM287 874l-230 -143v674l230 -229v-302zM287 258l-230 -229v673l230 -114v-330zM573 0h-487l231 229h27z" />
<glyph unicode="\" horiz-adv-x="1193" d="M610 911l-127 -229l-463 752h273zM1159 0h-268l-383 641h264z" />
<glyph unicode="]" horiz-adv-x="587" d="M502 1434l-230 -230h-28l-230 230h488zM530 731l-229 115v330l229 229v-674zM530 29l-229 229v301l229 143v-673zM502 0h-488l230 229h28z" />
<glyph unicode="^" horiz-adv-x="950" d="M760 1333l-129 -129h-314l-131 129l101 101h372zM891 731l-232 143v302l129 129l103 -101v-473zM287 874l-230 -143v473l101 101l129 -129v-302z" />
<glyph unicode="_" horiz-adv-x="724" d="M725 -410h-725l-4 84h727z" />
<glyph unicode="`" d="M831 1638l-200 -100h-314l-202 100l202 129h314z" />
<glyph unicode="a" d="M860 1434l-229 -230h-314l-231 230h774zM891 731l-232 143v302l232 229v-674zM287 874l-230 -143v674l230 -229v-302zM831 717l-200 -101h-314l-202 101l202 129h314zM891 0l-232 229v359l232 114v-702zM287 229l-230 -229v702l230 -114v-359z" />
<glyph unicode="b" d="M760 1333l-129 -129h-314l-231 230h573zM287 874l-230 -143v674l230 -229v-302zM891 731l-232 143v302l129 129l103 -101v-473zM831 717l-200 -101h-314l-202 101l202 129h314zM891 229l-103 -100l-129 129v330l232 114v-473zM287 258l-230 -229v673l230 -114v-330z M760 100l-101 -100h-573l231 229h314z" />
<glyph unicode="c" horiz-adv-x="860" d="M860 1434l-229 -230h-314l-131 129l101 101h573zM287 846l-230 -115v473l101 101l129 -129v-330zM287 258l-129 -129l-101 100v473l230 -143v-301zM860 0h-573l-101 100l131 129h314z" />
<glyph unicode="d" d="M760 1333l-129 -129h-314l-231 230h573zM287 874l-230 -143v674l230 -229v-302zM891 731l-232 143v302l129 129l103 -101v-473zM891 229l-103 -100l-129 129v330l232 114v-473zM287 258l-230 -229v673l230 -114v-330zM760 100l-101 -100h-573l231 229h314z" />
<glyph unicode="e" horiz-adv-x="860" d="M860 1434l-229 -230h-314l-231 230h774zM287 874l-230 -143v674l230 -229v-302zM831 717l-200 -101h-314l-202 101l202 129h314zM287 258l-230 -229v673l230 -114v-330zM860 0h-774l231 229h314z" />
<glyph unicode="f" horiz-adv-x="845" d="M860 1434l-229 -230h-314l-231 230h774zM287 874l-230 -143v674l230 -229v-302zM831 717l-200 -101h-314l-202 101l202 129h314zM287 229l-230 -229v702l230 -114v-359z" />
<glyph unicode="g" d="M760 1333l-129 -129h-314l-131 129l101 101h372zM287 874l-230 -143v473l101 101l129 -129v-302zM831 717l-200 -101h-144l-200 101l200 129h144zM891 229l-103 -100l-129 129v330l232 114v-473zM287 258l-129 -129l-101 100v473l230 -114v-330zM760 100l-101 -100h-372 l-101 100l131 129h314z" />
<glyph unicode="h" d="M891 731l-232 143v330l232 230v-703zM287 874l-230 -143v703l230 -230v-330zM831 717l-200 -101h-314l-202 101l202 129h314zM891 0l-232 229v359l232 114v-702zM287 229l-230 -229v702l230 -114v-359z" />
<glyph unicode="i" horiz-adv-x="344" d="M287 731l-230 143v330l230 230v-703zM287 0l-230 229v359l230 114v-702z" />
<glyph unicode="j" d="M891 731l-232 143v330l232 230v-703zM891 29l-232 229v330l232 114v-673zM287 258l-230 -229v673l230 -114v-330zM860 0h-774l231 229h314z" />
<glyph unicode="k" d="M891 1278l-234 -387l-264 -2l332 545h166v-156zM287 874l-230 -143v703l230 -230v-330zM831 717l-200 -101h-314l-202 101l202 129h314zM891 0l-232 229v359l232 114v-702zM287 229l-230 -229v702l230 -114v-359z" />
<glyph unicode="l" d="M287 874l-230 -143v703l230 -230v-330zM891 29l-232 229v330l232 114v-673zM287 258l-230 -229v673l230 -114v-330zM860 0h-774l231 229h314z" />
<glyph unicode="m" horiz-adv-x="1548" d="M1464 1434l-231 -230h-320l-139 144l-141 -144h-320l-227 230h1378zM287 874l-230 -143v674l230 -229v-302zM1491 731l-229 143v302l229 227v-672zM889 817l-115 -86l-115 86v359l113 116l117 -116v-359zM1491 0l-229 229v359l229 114v-702zM891 229l-117 -229l-115 229 v359l115 114l117 -114v-359zM287 229l-230 -229v702l230 -114v-359z" />
<glyph unicode="n" d="M760 1333l-129 -129h-314l-131 129l101 101h372zM891 731l-232 143v302l129 129l103 -101v-473zM287 874l-230 -143v473l101 101l129 -129v-302zM891 0l-232 258v330l232 114v-702zM287 201l-230 -201v702l230 -114v-387z" />
<glyph unicode="o" d="M760 1333l-129 -129h-314l-131 129l101 101h372zM891 731l-232 143v302l129 129l103 -101v-473zM287 874l-230 -143v473l101 101l129 -129v-302zM891 229l-103 -100l-129 129v330l232 114v-473zM287 258l-129 -129l-101 100v473l230 -114v-330zM760 100l-101 -100h-372 l-101 100l131 129h314z" />
<glyph unicode="p" d="M760 1333l-129 -129h-314l-231 230h573zM287 874l-230 -143v674l230 -229v-302zM891 731l-232 143v302l129 129l103 -101v-473zM831 717l-200 -101h-314l-202 101l202 129h314zM287 229l-230 -229v702l230 -114v-359z" />
<glyph unicode="q" horiz-adv-x="950" d="M760 1333l-129 -129h-314l-131 129l101 101h372zM891 731l-232 143v302l129 129l103 -101v-473zM287 874l-230 -143v473l101 101l129 -129v-302zM891 295l-103 -102l-129 129v266l232 114v-407zM287 252l-129 -123l-101 100v473l230 -114v-336zM543 0h-256l-105 104 l137 123zM893 -293l-522 522h325l197 -194v-328z" />
<glyph unicode="r" d="M760 1333l-129 -129h-314l-231 230h573zM287 874l-230 -143v674l230 -229v-302zM891 731l-232 143v302l129 129l103 -101v-473zM831 717l-200 -101h-314l-202 101l202 129h314zM287 229l-230 -229v702l230 -114v-359zM1006 0l-336 227l-148 348h117l100 48z" />
<glyph unicode="s" d="M891 1434l-260 -230h-314l-131 129l101 101h604zM287 874l-230 -143v473l101 101l129 -129v-302zM831 717l-200 -101h-314l-202 101l202 129h314zM891 229l-103 -100l-129 129v330l232 114v-473zM760 100l-101 -100h-602l260 229h314z" />
<glyph unicode="t" horiz-adv-x="776" d="M805 1434l-160 -230h-113l-139 144l-147 -144h-117l-158 230h834zM504 858l-113 -127l-121 127v311l121 131l113 -129v-313zM504 127l-115 -127l-123 127v448l123 130l115 -130v-448z" />
<glyph unicode="u" d="M891 731l-232 143v330l232 230v-703zM287 874l-230 -143v703l230 -230v-330zM891 229l-103 -100l-129 129v330l232 114v-473zM287 258l-129 -129l-101 100v473l230 -114v-330zM760 100l-101 -100h-372l-101 100l131 129h314z" />
<glyph unicode="v" d="M891 731l-232 143v388l232 172v-703zM287 874l-230 -143v703l230 -172v-388zM891 705l-260 -705l-137 281l114 321zM465 276l-143 -276l-265 705l287 -105zM586 0h-226l117 227z" />
<glyph unicode="w" horiz-adv-x="1550" d="M1491 731l-229 115v358l229 230v-703zM891 846l-117 -115l-115 115v358l115 230l117 -230v-358zM287 846l-230 -115v703l230 -230v-358zM891 258l-115 -117l-114 117v358l112 86l117 -86v-358zM1493 231l-102 -98l-134 131v297l236 144v-474zM287 262l-131 -129l-99 98 v476l230 -148v-297zM1364 106l-104 -106h-977l-101 104l129 125h324l139 -139l139 139h320z" />
<glyph unicode="x" horiz-adv-x="894" d="M868 1194l-270 -455h-129v228l270 467h129v-240zM428 739h-127l-272 467v228h139l260 -467v-228zM868 0h-139l-262 459v235h131l270 -469v-225zM428 459l-266 -459h-133v236l266 458h133v-235z" />
<glyph unicode="y" d="M891 731l-232 143v330l232 230v-703zM287 874l-230 -143v703l230 -230v-330zM831 717l-200 -101h-314l-202 101l202 129h314zM592 129l-119 -129l-117 129v444h236v-444z" />
<glyph unicode="z" horiz-adv-x="892" d="M690 1434l-135 -230h-297l-227 230h659zM864 1198l-307 -524l-143 215l323 545h127v-236zM543 641l-332 -641h-182v217l258 442zM862 0h-612l121 229h260z" />
<glyph unicode="{" horiz-adv-x="573" d="M545 1434l-144 -230h-84l-131 129l101 101h258zM287 874l-230 -143v473l101 101l129 -129v-302zM287 258l-129 -129l-101 100v473l230 -114v-330zM545 0h-258l-101 100l131 129h84z" />
<glyph unicode="|" horiz-adv-x="344" d="M287 874l-230 -143v703l230 -230v-330zM287 229l-230 -229v702l230 -114v-359z" />
<glyph unicode="}" horiz-adv-x="573" d="M387 1333l-131 -129h-84l-143 230h258zM516 731l-229 115v330l127 129l102 -101v-473zM516 229l-102 -100l-127 129v301l229 143v-473zM387 100l-100 -100h-258l143 229h84z" />
<glyph unicode="~" horiz-adv-x="1183" d="M1137 963h-590l231 229h129zM614 1188l-229 -230h-119l-231 230h579z" />
<glyph unicode="&#xa1;" horiz-adv-x="344" d="M287 1075h-230v359h230v-359zM287 229l-230 -229v989l230 -143v-617z" />
<glyph unicode="&#xa2;" horiz-adv-x="892" d="M580 1501l-123 -119l-111 115v113l115 110l119 -108v-111zM864 1434l-235 -230h-312l-124 125l94 105h61l111 -113l114 113h291zM287 844l-228 -111v469l103 103l125 -131v-330zM287 252l-129 -127l-101 100v480l230 -146v-307zM862 0h-284l-115 111l-115 -111h-63 l-95 94l129 135h314zM578 -178l-115 -119l-117 123v111l117 112l115 -112v-115z" />
<glyph unicode="&#xa3;" horiz-adv-x="1089" d="M1004 1434l-191 -230h-321l-127 125l102 105h537zM465 881l-113 -125l-116 121v327l98 99l131 -129v-293zM752 719l-195 -103h-65l-111 115l111 115h67zM319 733l-108 -117h-72l-168 117l138 113h100zM465 254l-232 -254v586l115 119l117 -119v-332zM1061 0h-774l209 229 h370z" />
<glyph unicode="&#xa5;" d="M891 731l-232 143v330l232 230v-703zM287 874l-230 -143v703l230 -230v-330zM831 717l-200 -101h-314l-202 101l202 129h314zM592 479l-123 -92l-113 90v96h236v-94zM897 356l-160 -116h-104l-150 112l154 117h100zM457 352l-164 -112h-86l-154 112l154 117h96zM588 119 l-117 -119l-117 119v114l117 86l117 -88v-112z" />
<glyph unicode="&#xa6;" horiz-adv-x="0" />
<glyph unicode="&#xa7;" d="M891 1434l-260 -230h-314l-131 129l101 101h604zM287 965l-230 -144v383l101 101l129 -129v-211zM838 809l-209 -100h-314l-198 100l198 129h332zM287 350l-232 -114v561l232 -117v-330zM889 236l-230 114v330l230 113v-557zM831 221l-202 -129h-314l-200 129l200 101 h314zM889 -143l-101 -101l-129 129v178l230 144v-350zM760 -272l-101 -101h-604l260 230h314z" />
<glyph unicode="&#xa8;" horiz-adv-x="0" d="M821 1638l-168 -100l-157 100l157 129zM440 1638l-168 -100l-157 100l157 129z" />
<glyph unicode="&#xa9;" horiz-adv-x="1509" d="M758 1491q190 0 371 -97.5t282 -279t101 -378.5q0 -195 -99.5 -375t-279 -279.5t-375.5 -99.5t-375.5 99.5t-279.5 279.5t-100 375q0 197 101.5 378.5t282.5 279t371 97.5zM758 1366q-159 0 -309.5 -81.5t-235.5 -233t-85 -315.5q0 -163 83.5 -312.5t233.5 -233 t313 -83.5t313 83.5t233 233t83 312.5q0 164 -84.5 315.5t-235.5 233t-309 81.5zM1000 614l123 -36q-30 -125 -127.5 -199.5t-236.5 -74.5q-176 0 -286 114t-110 316q0 132 50 229.5t142.5 147t211.5 49.5q133 0 221 -63.5t120 -172.5l-119 -29q-30 74 -88.5 113.5 t-137.5 39.5q-115 0 -189.5 -82t-74.5 -235t70.5 -231.5t182.5 -78.5q90 0 158 52t90 141z" />
<glyph unicode="&#xaa;" horiz-adv-x="663" d="M602 1434l-160 -160h-221l-162 160h543zM623 942l-162 100v211l162 160v-471zM201 1042l-160 -100v471l160 -160v-211zM582 932l-140 -70h-221l-141 70l141 90h221zM623 430l-162 160v252l162 80v-492zM201 590l-160 -160v492l160 -80v-252z" />
<glyph unicode="&#xab;" horiz-adv-x="0" />
<glyph unicode="&#xac;" horiz-adv-x="1519" d="M1448 0h-119v496h-1296v118h1415v-614z" />
<glyph unicode="&#xad;" horiz-adv-x="686" d="M659 836l-174 -226h-456l170 226h460z" />
<glyph unicode="&#xae;" horiz-adv-x="1509" d="M758 1491q190 0 371 -97.5t282 -279t101 -378.5q0 -195 -99.5 -375t-279 -279.5t-375.5 -99.5t-375.5 99.5t-279.5 279.5t-100 375q0 197 101.5 378.5t282.5 279t371 97.5zM758 1366q-159 0 -309.5 -81.5t-235.5 -233t-85 -315.5q0 -163 83.5 -312.5t233.5 -233 t313 -83.5t313 83.5t233 233t83 312.5q0 164 -84.5 315.5t-235.5 233t-309 81.5zM427 319v812h279q143 0 207 -22.5t102 -78.5t38 -119q0 -89 -63.5 -155t-168.5 -74q43 -18 69 -43q49 -48 120 -161l99 -159h-160l-72 128q-85 151 -137 189q-36 28 -105 28h-77v-345h-131z M558 776h159q114 0 155.5 34t41.5 90q0 36 -20 64.5t-55.5 42.5t-131.5 14h-149v-245z" />
<glyph unicode="&#xaf;" horiz-adv-x="1131" />
<glyph unicode="&#xb0;" horiz-adv-x="851" />
<glyph unicode="&#xb1;" horiz-adv-x="1169" />
<glyph unicode="&#xb2;" horiz-adv-x="0" />
<glyph unicode="&#xb3;" horiz-adv-x="0" />
<glyph unicode="&#xb4;" d="M831 1638l-200 -100h-314l-202 100l202 129h314z" />
<glyph unicode="&#xb5;" horiz-adv-x="1226" />
<glyph unicode="&#xb6;" horiz-adv-x="0" />
<glyph unicode="&#xb7;" horiz-adv-x="682" />
<glyph unicode="&#xb8;" horiz-adv-x="0" d="M721 1638l-201 -100h-143l-201 100l201 129h143z" />
<glyph unicode="&#xb9;" horiz-adv-x="0" />
<glyph unicode="&#xba;" horiz-adv-x="663" d="M532 1364l-90 -90h-221l-90 90l70 70h260zM623 942l-162 100v211l90 90l72 -69v-332zM201 1042l-160 -100v332l70 69l90 -90v-211zM623 590l-72 -70l-90 90v232l162 80v-332zM201 610l-90 -90l-70 70v332l160 -80v-232zM532 500l-71 -70h-260l-70 70l90 90h221z" />
<glyph unicode="&#xbb;" horiz-adv-x="0" />
<glyph unicode="&#xbc;" horiz-adv-x="0" />
<glyph unicode="&#xbd;" horiz-adv-x="0" />
<glyph unicode="&#xbe;" horiz-adv-x="0" />
<glyph unicode="&#xbf;" horiz-adv-x="831" d="M631 1075h-230v359h230v-359zM631 588h-316l-200 129l200 100h316v-229zM287 258l-129 -129l-101 100v473l230 -143v-301zM831 0h-544l-101 100l129 129h316z" />
<glyph unicode="&#xc0;" horiz-adv-x="577" />
<glyph unicode="&#xc1;" horiz-adv-x="860" d="M860 1434l-229 -230h-314l-231 230h774zM287 874l-230 -143v674l230 -229v-302zM831 717l-200 -101h-314l-202 101l202 129h314zM287 258l-230 -229v673l230 -114v-330zM860 0h-774l231 229h314zM811 1638l-201 -100h-313l-203 100l203 129h313z" />
<glyph unicode="&#xc2;" horiz-adv-x="0" />
<glyph unicode="&#xc3;" d="M860 1434l-229 -230h-314l-231 230h774zM891 731l-232 143v302l232 229v-674zM287 874l-230 -143v674l230 -229v-302zM831 717l-200 -101h-314l-202 101l202 129h314zM891 0l-232 229v359l232 114v-702zM287 229l-230 -229v702l230 -114v-359zM831 1638l-200 -100h-314 l-202 100l202 129h314z" />
<glyph unicode="&#xc4;" d="M860 1434l-229 -230h-314l-231 230h774zM891 731l-232 143v302l232 229v-674zM287 874l-230 -143v674l230 -229v-302zM831 717l-200 -101h-314l-202 101l202 129h314zM891 0l-232 229v359l232 114v-702zM287 229l-230 -229v702l230 -114v-359zM821 1638l-168 -100 l-157 100l157 129zM440 1638l-168 -100l-157 100l157 129z" />
<glyph unicode="&#xc5;" d="M860 1434l-229 -230h-314l-231 230h774zM891 731l-232 143v302l232 229v-674zM287 874l-230 -143v674l230 -229v-302zM831 717l-200 -101h-314l-202 101l202 129h314zM891 0l-232 229v359l232 114v-702zM287 229l-230 -229v702l230 -114v-359zM721 1638l-201 -100h-143 l-201 100l201 129h143z" />
<glyph unicode="&#xc6;" horiz-adv-x="1808" d="M1808 1434l-229 -230h-313l-232 230h774zM860 1434l-229 -230h-314l-231 230h774zM1235 874l-229 -143v674l229 -229v-302zM891 731l-232 143v302l232 229v-674zM287 874l-230 -143v674l230 -229v-302zM1780 717l-201 -101h-313l-203 101l203 129h313zM831 717l-200 -101 h-314l-202 101l202 129h314zM1235 258l-229 -229v673l229 -114v-330zM891 0l-232 229v359l232 114v-702zM287 229l-230 -229v702l230 -114v-359zM1808 0h-774l232 229h313z" />
<glyph unicode="&#xc7;" horiz-adv-x="860" d="M588 -297l-144 137l144 142v-279zM860 1434l-229 -230h-314l-131 129l101 101h573zM287 846l-230 -115v473l101 101l129 -129v-330zM287 258l-129 -129l-101 100v473l230 -143v-301zM860 0h-573l-101 100l131 129h314z" />
<glyph unicode="&#xc8;" horiz-adv-x="860" d="M860 1434l-229 -230h-314l-231 230h774zM287 874l-230 -143v674l230 -229v-302zM831 717l-200 -101h-314l-202 101l202 129h314zM287 258l-230 -229v673l230 -114v-330zM860 0h-774l231 229h314zM791 1638l-168 -100l-158 100l158 129zM410 1638l-168 -100l-158 100 l158 129z" />
<glyph unicode="&#xc9;" horiz-adv-x="860" d="M860 1434l-229 -230h-314l-231 230h774zM287 874l-230 -143v674l230 -229v-302zM831 717l-200 -101h-314l-202 101l202 129h314zM287 258l-230 -229v673l230 -114v-330zM860 0h-774l231 229h314zM801 1638l-201 -100h-313l-203 100l203 129h313z" />
<glyph unicode="&#xca;" d="M860 1434l-229 -230h-314l-231 230h774zM891 731l-232 143v302l232 229v-674zM287 874l-230 -143v674l230 -229v-302zM831 717l-200 -101h-314l-202 101l202 129h314zM891 0l-232 229v359l232 114v-702zM287 229l-230 -229v702l230 -114v-359zM831 1638l-200 -100h-314 l-202 100l202 129h314z" />
<glyph unicode="&#xcb;" d="M860 1434l-229 -230h-314l-231 230h774zM891 731l-232 143v302l232 229v-674zM287 874l-230 -143v674l230 -229v-302zM831 717l-200 -101h-314l-202 101l202 129h314zM891 0l-232 229v359l232 114v-702zM287 229l-230 -229v702l230 -114v-359zM825 1638l-200 -100h-314 l-202 100l202 129h314z" />
<glyph unicode="&#xcc;" horiz-adv-x="344" d="M287 731l-230 143v330l230 230v-703zM287 0l-230 229v359l230 114v-702zM520 1638l-168 -100l-157 100l157 129zM139 1638l-168 -100l-157 100l157 129z" />
<glyph unicode="&#xcd;" horiz-adv-x="860" d="M860 1434l-229 -230h-314l-231 230h774zM287 874l-230 -143v674l230 -229v-302zM831 717l-200 -101h-314l-202 101l202 129h314zM287 258l-230 -229v673l230 -114v-330zM860 0h-774l231 229h314zM795 1638l-201 -100h-313l-203 100l203 129h313z" />
<glyph unicode="&#xce;" horiz-adv-x="344" d="M287 731l-230 143v330l230 230v-703zM287 0l-230 229v359l230 114v-702zM543 1638l-201 -100h-313l-203 100l203 129h313z" />
<glyph unicode="&#xcf;" horiz-adv-x="344" d="M287 731l-230 143v330l230 230v-703zM287 0l-230 229v359l230 114v-702zM555 1638l-201 -100h-313l-203 100l203 129h313z" />
<glyph unicode="&#xd0;" horiz-adv-x="0" />
<glyph unicode="&#xd1;" d="M760 1333l-129 -129h-314l-131 129l101 101h372zM891 731l-232 143v302l129 129l103 -101v-473zM287 874l-230 -143v473l101 101l129 -129v-302zM891 0l-232 258v330l232 114v-702zM287 201l-230 -201v702l230 -114v-387zM831 1638l-200 -100h-314l-202 100l202 129h314z " />
<glyph unicode="&#xd2;" d="M760 1333l-129 -129h-314l-131 129l101 101h372zM891 731l-232 143v302l129 129l103 -101v-473zM287 874l-230 -143v473l101 101l129 -129v-302zM891 229l-103 -100l-129 129v330l232 114v-473zM287 258l-129 -129l-101 100v473l230 -114v-330zM760 100l-101 -100h-372 l-101 100l131 129h314zM831 1638l-200 -100h-314l-202 100l202 129h314z" />
<glyph unicode="&#xd3;" horiz-adv-x="344" d="M287 731l-230 143v330l230 230v-703zM287 0l-230 229v359l230 114v-702zM549 1638l-201 -100h-313l-203 100l203 129h313z" />
<glyph unicode="&#xd4;" d="M760 1333l-129 -129h-314l-131 129l101 101h372zM891 731l-232 143v302l129 129l103 -101v-473zM287 874l-230 -143v473l101 101l129 -129v-302zM891 229l-103 -100l-129 129v330l232 114v-473zM287 258l-129 -129l-101 100v473l230 -114v-330zM760 100l-101 -100h-372 l-101 100l131 129h314zM831 1638l-200 -100h-314l-202 100l202 129h314z" />
<glyph unicode="&#xd5;" d="M860 1434l-229 -230h-314l-231 230h774zM891 731l-232 143v302l232 229v-674zM287 874l-230 -143v674l230 -229v-302zM831 717l-200 -101h-314l-202 101l202 129h314zM891 0l-232 229v359l232 114v-702zM287 229l-230 -229v702l230 -114v-359zM831 1638l-200 -100h-314 l-202 100l202 129h314z" />
<glyph unicode="&#xd6;" d="M760 1333l-129 -129h-314l-131 129l101 101h372zM891 731l-232 143v302l129 129l103 -101v-473zM287 874l-230 -143v473l101 101l129 -129v-302zM891 229l-103 -100l-129 129v330l232 114v-473zM287 258l-129 -129l-101 100v473l230 -114v-330zM760 100l-101 -100h-372 l-101 100l131 129h314zM821 1638l-168 -100l-157 100l157 129zM440 1638l-168 -100l-157 100l157 129z" />
<glyph unicode="&#xd7;" horiz-adv-x="0" />
<glyph unicode="&#xd8;" d="M633 1020l-166 -277v433h166v-156zM479 258h-166v156l166 276v-432zM760 1333l-129 -129h-314l-131 129l101 101h372zM891 731l-232 143v302l129 129l103 -101v-473zM287 874l-230 -143v473l101 101l129 -129v-302zM891 229l-103 -100l-129 129v330l232 114v-473z M287 258l-129 -129l-101 100v473l230 -114v-330zM760 100l-101 -100h-372l-101 100l131 129h314z" />
<glyph unicode="&#xd9;" d="M891 731l-232 143v330l232 230v-703zM287 874l-230 -143v703l230 -230v-330zM891 229l-103 -100l-129 129v330l232 114v-473zM287 258l-129 -129l-101 100v473l230 -114v-330zM760 100l-101 -100h-372l-101 100l131 129h314zM831 1638l-200 -100h-314l-202 100l202 129 h314z" />
<glyph unicode="&#xda;" horiz-adv-x="1683" />
<glyph unicode="&#xdb;" d="M760 1333l-129 -129h-314l-131 129l101 101h372zM891 731l-232 143v302l129 129l103 -101v-473zM287 874l-230 -143v473l101 101l129 -129v-302zM891 229l-103 -100l-129 129v330l232 114v-473zM287 258l-129 -129l-101 100v473l230 -114v-330zM760 100l-101 -100h-372 l-101 100l131 129h314zM831 1638l-200 -100h-314l-202 100l202 129h314z" />
<glyph unicode="&#xdc;" d="M891 731l-232 143v330l232 230v-703zM287 874l-230 -143v703l230 -230v-330zM891 229l-103 -100l-129 129v330l232 114v-473zM287 258l-129 -129l-101 100v473l230 -114v-330zM760 100l-101 -100h-372l-101 100l131 129h314zM821 1638l-168 -100l-157 100l157 129z M440 1638l-168 -100l-157 100l157 129z" />
<glyph unicode="&#xdd;" horiz-adv-x="0" />
<glyph unicode="&#xde;" horiz-adv-x="0" />
<glyph unicode="&#xdf;" horiz-adv-x="1896" d="M1839 1434l-260 -230h-313l-131 129l100 101h604zM891 1434l-260 -230h-314l-131 129l101 101h604zM1235 874l-229 -143v473l100 101l129 -129v-302zM287 874l-230 -143v473l101 101l129 -129v-302zM1780 717l-201 -101h-313l-203 101l203 129h313zM831 717l-200 -101 h-314l-202 101l202 129h314zM1839 229l-102 -100l-129 129v330l231 114v-473zM891 229l-103 -100l-129 129v330l232 114v-473zM1708 100l-100 -100h-602l260 229h313zM760 100l-101 -100h-602l260 229h314z" />
<glyph unicode="&#xe0;" d="M860 1434l-229 -230h-314l-231 230h774zM891 731l-232 143v302l232 229v-674zM287 874l-230 -143v674l230 -229v-302zM831 717l-200 -101h-314l-202 101l202 129h314zM891 0l-232 229v359l232 114v-702zM287 229l-230 -229v702l230 -114v-359zM831 1638l-200 -100h-314 l-202 100l202 129h314z" />
<glyph unicode="&#xe1;" d="M860 1434l-229 -230h-314l-231 230h774zM891 731l-232 143v302l232 229v-674zM287 874l-230 -143v674l230 -229v-302zM831 717l-200 -101h-314l-202 101l202 129h314zM891 0l-232 229v359l232 114v-702zM287 229l-230 -229v702l230 -114v-359zM825 1638l-200 -100h-314 l-202 100l202 129h314z" />
<glyph unicode="&#xe2;" d="M860 1434l-229 -230h-314l-231 230h774zM891 731l-232 143v302l232 229v-674zM287 874l-230 -143v674l230 -229v-302zM831 717l-200 -101h-314l-202 101l202 129h314zM891 0l-232 229v359l232 114v-702zM287 229l-230 -229v702l230 -114v-359zM831 1638l-200 -100h-314 l-202 100l202 129h314z" />
<glyph unicode="&#xe3;" d="M860 1434l-229 -230h-314l-231 230h774zM891 731l-232 143v302l232 229v-674zM287 874l-230 -143v674l230 -229v-302zM831 717l-200 -101h-314l-202 101l202 129h314zM891 0l-232 229v359l232 114v-702zM287 229l-230 -229v702l230 -114v-359zM831 1638l-200 -100h-314 l-202 100l202 129h314z" />
<glyph unicode="&#xe4;" d="M860 1434l-229 -230h-314l-231 230h774zM891 731l-232 143v302l232 229v-674zM287 874l-230 -143v674l230 -229v-302zM831 717l-200 -101h-314l-202 101l202 129h314zM891 0l-232 229v359l232 114v-702zM287 229l-230 -229v702l230 -114v-359zM821 1638l-168 -100 l-157 100l157 129zM440 1638l-168 -100l-157 100l157 129z" />
<glyph unicode="&#xe5;" d="M860 1434l-229 -230h-314l-231 230h774zM891 731l-232 143v302l232 229v-674zM287 874l-230 -143v674l230 -229v-302zM831 717l-200 -101h-314l-202 101l202 129h314zM891 0l-232 229v359l232 114v-702zM287 229l-230 -229v702l230 -114v-359zM721 1638l-201 -100h-143 l-201 100l201 129h143z" />
<glyph unicode="&#xe6;" horiz-adv-x="1808" d="M1808 1434l-229 -230h-313l-232 230h774zM860 1434l-229 -230h-314l-231 230h774zM1235 874l-229 -143v674l229 -229v-302zM891 731l-232 143v302l232 229v-674zM287 874l-230 -143v674l230 -229v-302zM1780 717l-201 -101h-313l-203 101l203 129h313zM831 717l-200 -101 h-314l-202 101l202 129h314zM1235 258l-229 -229v673l229 -114v-330zM891 0l-232 229v359l232 114v-702zM287 229l-230 -229v702l230 -114v-359zM1808 0h-774l232 229h313z" />
<glyph unicode="&#xe7;" horiz-adv-x="860" d="M588 -297l-144 137l144 142v-279zM860 1434l-229 -230h-314l-131 129l101 101h573zM287 846l-230 -115v473l101 101l129 -129v-330zM287 258l-129 -129l-101 100v473l230 -143v-301zM860 0h-573l-101 100l131 129h314z" />
<glyph unicode="&#xe8;" horiz-adv-x="860" d="M860 1434l-229 -230h-314l-231 230h774zM287 874l-230 -143v674l230 -229v-302zM831 717l-200 -101h-314l-202 101l202 129h314zM287 258l-230 -229v673l230 -114v-330zM860 0h-774l231 229h314zM795 1638l-201 -100h-313l-203 100l203 129h313z" />
<glyph unicode="&#xe9;" horiz-adv-x="860" d="M860 1434l-229 -230h-314l-231 230h774zM287 874l-230 -143v674l230 -229v-302zM831 717l-200 -101h-314l-202 101l202 129h314zM287 258l-230 -229v673l230 -114v-330zM860 0h-774l231 229h314zM801 1638l-201 -100h-313l-203 100l203 129h313z" />
<glyph unicode="&#xea;" horiz-adv-x="860" d="M860 1434l-229 -230h-314l-231 230h774zM287 874l-230 -143v674l230 -229v-302zM831 717l-200 -101h-314l-202 101l202 129h314zM287 258l-230 -229v673l230 -114v-330zM860 0h-774l231 229h314zM811 1638l-201 -100h-313l-203 100l203 129h313z" />
<glyph unicode="&#xeb;" horiz-adv-x="860" d="M860 1434l-229 -230h-314l-231 230h774zM287 874l-230 -143v674l230 -229v-302zM831 717l-200 -101h-314l-202 101l202 129h314zM287 258l-230 -229v673l230 -114v-330zM860 0h-774l231 229h314zM791 1638l-168 -100l-158 100l158 129zM410 1638l-168 -100l-158 100 l158 129z" />
<glyph unicode="&#xec;" horiz-adv-x="344" d="M287 731l-230 143v330l230 230v-703zM287 0l-230 229v359l230 114v-702zM549 1638l-201 -100h-313l-203 100l203 129h313z" />
<glyph unicode="&#xed;" horiz-adv-x="344" d="M287 731l-230 143v330l230 230v-703zM287 0l-230 229v359l230 114v-702zM543 1638l-201 -100h-313l-203 100l203 129h313z" />
<glyph unicode="&#xee;" horiz-adv-x="344" d="M287 731l-230 143v330l230 230v-703zM287 0l-230 229v359l230 114v-702zM555 1638l-201 -100h-313l-203 100l203 129h313z" />
<glyph unicode="&#xef;" horiz-adv-x="344" d="M287 731l-230 143v330l230 230v-703zM287 0l-230 229v359l230 114v-702zM520 1638l-168 -100l-157 100l157 129zM139 1638l-168 -100l-157 100l157 129z" />
<glyph unicode="&#xf0;" horiz-adv-x="0" />
<glyph unicode="&#xf1;" d="M760 1333l-129 -129h-314l-131 129l101 101h372zM891 731l-232 143v302l129 129l103 -101v-473zM287 874l-230 -143v473l101 101l129 -129v-302zM891 0l-232 258v330l232 114v-702zM287 201l-230 -201v702l230 -114v-387zM831 1638l-200 -100h-314l-202 100l202 129h314z " />
<glyph unicode="&#xf2;" d="M760 1333l-129 -129h-314l-131 129l101 101h372zM891 731l-232 143v302l129 129l103 -101v-473zM287 874l-230 -143v473l101 101l129 -129v-302zM891 229l-103 -100l-129 129v330l232 114v-473zM287 258l-129 -129l-101 100v473l230 -114v-330zM760 100l-101 -100h-372 l-101 100l131 129h314zM831 1638l-200 -100h-314l-202 100l202 129h314z" />
<glyph unicode="&#xf3;" d="M760 1333l-129 -129h-314l-131 129l101 101h372zM891 731l-232 143v302l129 129l103 -101v-473zM287 874l-230 -143v473l101 101l129 -129v-302zM891 229l-103 -100l-129 129v330l232 114v-473zM287 258l-129 -129l-101 100v473l230 -114v-330zM760 100l-101 -100h-372 l-101 100l131 129h314zM831 1638l-200 -100h-314l-202 100l202 129h314z" />
<glyph unicode="&#xf4;" d="M760 1333l-129 -129h-314l-131 129l101 101h372zM891 731l-232 143v302l129 129l103 -101v-473zM287 874l-230 -143v473l101 101l129 -129v-302zM891 229l-103 -100l-129 129v330l232 114v-473zM287 258l-129 -129l-101 100v473l230 -114v-330zM760 100l-101 -100h-372 l-101 100l131 129h314zM831 1638l-200 -100h-314l-202 100l202 129h314z" />
<glyph unicode="&#xf5;" d="M760 1333l-129 -129h-314l-131 129l101 101h372zM891 731l-232 143v302l129 129l103 -101v-473zM287 874l-230 -143v473l101 101l129 -129v-302zM891 229l-103 -100l-129 129v330l232 114v-473zM287 258l-129 -129l-101 100v473l230 -114v-330zM760 100l-101 -100h-372 l-101 100l131 129h314zM831 1638l-200 -100h-314l-202 100l202 129h314z" />
<glyph unicode="&#xf6;" d="M760 1333l-129 -129h-314l-131 129l101 101h372zM891 731l-232 143v302l129 129l103 -101v-473zM287 874l-230 -143v473l101 101l129 -129v-302zM891 229l-103 -100l-129 129v330l232 114v-473zM287 258l-129 -129l-101 100v473l230 -114v-330zM760 100l-101 -100h-372 l-101 100l131 129h314zM821 1638l-168 -100l-157 100l157 129zM440 1638l-168 -100l-157 100l157 129z" />
<glyph unicode="&#xf7;" horiz-adv-x="317" d="M272 846h-229v588h229v-588z" />
<glyph unicode="&#xf8;" d="M633 1020l-166 -277v433h166v-156zM479 258h-166v156l166 276v-432zM760 1333l-129 -129h-314l-131 129l101 101h372zM891 731l-232 143v302l129 129l103 -101v-473zM287 874l-230 -143v473l101 101l129 -129v-302zM891 229l-103 -100l-129 129v330l232 114v-473z M287 258l-129 -129l-101 100v473l230 -114v-330zM760 100l-101 -100h-372l-101 100l131 129h314z" />
<glyph unicode="&#xf9;" d="M891 731l-232 143v330l232 230v-703zM287 874l-230 -143v703l230 -230v-330zM891 229l-103 -100l-129 129v330l232 114v-473zM287 258l-129 -129l-101 100v473l230 -114v-330zM760 100l-101 -100h-372l-101 100l131 129h314zM831 1638l-200 -100h-314l-202 100l202 129 h314z" />
<glyph unicode="&#xfa;" d="M891 731l-232 143v330l232 230v-703zM287 874l-230 -143v703l230 -230v-330zM891 229l-103 -100l-129 129v330l232 114v-473zM287 258l-129 -129l-101 100v473l230 -114v-330zM760 100l-101 -100h-372l-101 100l131 129h314zM831 1638l-200 -100h-314l-202 100l202 129 h314z" />
<glyph unicode="&#xfb;" d="M891 731l-232 143v330l232 230v-703zM287 874l-230 -143v703l230 -230v-330zM891 229l-103 -100l-129 129v330l232 114v-473zM287 258l-129 -129l-101 100v473l230 -114v-330zM760 100l-101 -100h-372l-101 100l131 129h314zM825 1638l-200 -100h-314l-202 100l202 129 h314z" />
<glyph unicode="&#xfc;" d="M891 731l-232 143v330l232 230v-703zM287 874l-230 -143v703l230 -230v-330zM891 229l-103 -100l-129 129v330l232 114v-473zM287 258l-129 -129l-101 100v473l230 -114v-330zM760 100l-101 -100h-372l-101 100l131 129h314zM821 1638l-168 -100l-157 100l157 129z M440 1638l-168 -100l-157 100l157 129z" />
<glyph unicode="&#xfd;" horiz-adv-x="0" />
<glyph unicode="&#xfe;" horiz-adv-x="0" />
<glyph unicode="&#xff;" horiz-adv-x="1052" />
<glyph unicode="&#x100;" horiz-adv-x="1366" />
<glyph unicode="&#x101;" horiz-adv-x="1139" />
<glyph unicode="&#x102;" horiz-adv-x="1366" />
<glyph unicode="&#x103;" horiz-adv-x="1139" />
<glyph unicode="&#x104;" horiz-adv-x="1366" />
<glyph unicode="&#x105;" horiz-adv-x="1139" />
<glyph unicode="&#x106;" horiz-adv-x="1479" />
<glyph unicode="&#x107;" horiz-adv-x="1024" />
<glyph unicode="&#x108;" horiz-adv-x="1479" />
<glyph unicode="&#x109;" horiz-adv-x="1024" />
<glyph unicode="&#x10a;" horiz-adv-x="1479" />
<glyph unicode="&#x10b;" horiz-adv-x="1024" />
<glyph unicode="&#x10c;" horiz-adv-x="1479" />
<glyph unicode="&#x10d;" horiz-adv-x="1024" />
<glyph unicode="&#x10e;" horiz-adv-x="1479" />
<glyph unicode="&#x10f;" horiz-adv-x="1259" />
<glyph unicode="&#x110;" horiz-adv-x="1479" />
<glyph unicode="&#x111;" horiz-adv-x="1139" />
<glyph unicode="&#x112;" horiz-adv-x="1366" />
<glyph unicode="&#x113;" horiz-adv-x="1139" />
<glyph unicode="&#x114;" horiz-adv-x="1366" />
<glyph unicode="&#x115;" horiz-adv-x="1139" />
<glyph unicode="&#x116;" horiz-adv-x="1366" />
<glyph unicode="&#x117;" horiz-adv-x="1139" />
<glyph unicode="&#x118;" horiz-adv-x="1366" />
<glyph unicode="&#x119;" horiz-adv-x="1139" />
<glyph unicode="&#x11a;" horiz-adv-x="1366" />
<glyph unicode="&#x11b;" horiz-adv-x="1139" />
<glyph unicode="&#x11c;" horiz-adv-x="1593" />
<glyph unicode="&#x11d;" horiz-adv-x="1139" />
<glyph unicode="&#x11e;" horiz-adv-x="0" />
<glyph unicode="&#x11f;" horiz-adv-x="1139" />
<glyph unicode="&#x120;" horiz-adv-x="1593" />
<glyph unicode="&#x121;" horiz-adv-x="1139" />
<glyph unicode="&#x122;" horiz-adv-x="1593" />
<glyph unicode="&#x123;" horiz-adv-x="1139" />
<glyph unicode="&#x124;" horiz-adv-x="1479" />
<glyph unicode="&#x125;" horiz-adv-x="1139" />
<glyph unicode="&#x126;" horiz-adv-x="1479" />
<glyph unicode="&#x127;" horiz-adv-x="1139" />
<glyph unicode="&#x128;" horiz-adv-x="569" />
<glyph unicode="&#x129;" horiz-adv-x="569" />
<glyph unicode="&#x12a;" horiz-adv-x="569" />
<glyph unicode="&#x12b;" horiz-adv-x="569" />
<glyph unicode="&#x12c;" horiz-adv-x="569" />
<glyph unicode="&#x12d;" horiz-adv-x="569" />
<glyph unicode="&#x12e;" horiz-adv-x="569" />
<glyph unicode="&#x12f;" horiz-adv-x="455" />
<glyph unicode="&#x130;" horiz-adv-x="569" />
<glyph unicode="&#x131;" d="M891 731l-232 143v330l232 230v-703zM287 874l-230 -143v703l230 -230v-330zM891 229l-103 -100l-129 129v330l232 114v-473zM287 258l-129 -129l-101 100v473l230 -114v-330zM760 100l-101 -100h-372l-101 100l131 129h314zM825 1638l-200 -100h-314l-202 100l202 129 h314z" />
<glyph unicode="&#x132;" horiz-adv-x="1505" />
<glyph unicode="&#x133;" horiz-adv-x="909" />
<glyph unicode="&#x134;" horiz-adv-x="1024" />
<glyph unicode="&#x135;" horiz-adv-x="455" />
<glyph unicode="&#x136;" horiz-adv-x="1366" />
<glyph unicode="&#x137;" horiz-adv-x="1024" />
<glyph unicode="&#x138;" horiz-adv-x="1024" />
<glyph unicode="&#x139;" horiz-adv-x="1139" />
<glyph unicode="&#x13a;" horiz-adv-x="455" />
<glyph unicode="&#x13b;" horiz-adv-x="1139" />
<glyph unicode="&#x13c;" horiz-adv-x="455" />
<glyph unicode="&#x13d;" horiz-adv-x="1139" />
<glyph unicode="&#x13e;" horiz-adv-x="597" />
<glyph unicode="&#x13f;" horiz-adv-x="1139" />
<glyph unicode="&#x140;" horiz-adv-x="684" />
<glyph unicode="&#x141;" horiz-adv-x="860" d="M633 -160l-144 -137v279z" />
<glyph unicode="&#x142;" d="M831 1638l-200 -100h-314l-202 100l202 129h314z" />
<glyph unicode="&#x143;" horiz-adv-x="1479" />
<glyph unicode="&#x144;" horiz-adv-x="1139" />
<glyph unicode="&#x145;" horiz-adv-x="1479" />
<glyph unicode="&#x146;" horiz-adv-x="1139" />
<glyph unicode="&#x147;" horiz-adv-x="1479" />
<glyph unicode="&#x148;" horiz-adv-x="1139" />
<glyph unicode="&#x149;" horiz-adv-x="1237" />
<glyph unicode="&#x14a;" horiz-adv-x="1481" />
<glyph unicode="&#x14b;" horiz-adv-x="1139" />
<glyph unicode="&#x14c;" horiz-adv-x="1593" />
<glyph unicode="&#x14d;" horiz-adv-x="1139" />
<glyph unicode="&#x14e;" horiz-adv-x="1593" />
<glyph unicode="&#x14f;" horiz-adv-x="1139" />
<glyph unicode="&#x150;" horiz-adv-x="1593" />
<glyph unicode="&#x151;" horiz-adv-x="1139" />
<glyph unicode="&#x152;" d="M760 1333l-129 -129h-314l-131 129l101 101h372zM891 731l-232 143v302l129 129l103 -101v-473zM287 874l-230 -143v473l101 101l129 -129v-302zM891 229l-103 -100l-129 129v330l232 114v-473zM287 258l-129 -129l-101 100v473l230 -114v-330zM760 100l-101 -100h-372 l-101 100l131 129h314zM831 1638l-200 -100h-314l-202 100l202 129h314z" />
<glyph unicode="&#x153;" horiz-adv-x="1808" d="M1808 1434l-229 -230h-313l-232 230h774zM760 1333l-129 -129h-314l-131 129l101 101h372zM1235 874l-229 -143v674l229 -229v-302zM891 731l-232 143v302l129 129l103 -101v-473zM287 874l-230 -143v473l101 101l129 -129v-302zM1780 717l-201 -101h-313l-203 101 l203 129h313zM891 229l-103 -100l-129 129v330l232 114v-473zM287 258l-129 -129l-101 100v473l230 -114v-330zM1235 258l-229 -229v673l229 -114v-330zM1808 0h-774l232 229h313zM760 100l-101 -100h-372l-101 100l131 129h314z" />
<glyph unicode="&#x154;" horiz-adv-x="1479" />
<glyph unicode="&#x155;" horiz-adv-x="682" />
<glyph unicode="&#x156;" horiz-adv-x="1479" />
<glyph unicode="&#x157;" horiz-adv-x="682" />
<glyph unicode="&#x158;" horiz-adv-x="1479" />
<glyph unicode="&#x159;" horiz-adv-x="682" />
<glyph unicode="&#x15a;" horiz-adv-x="1366" />
<glyph unicode="&#x15b;" horiz-adv-x="1024" />
<glyph unicode="&#x15c;" horiz-adv-x="1366" />
<glyph unicode="&#x15d;" horiz-adv-x="1024" />
<glyph unicode="&#x15e;" horiz-adv-x="1366" />
<glyph unicode="&#x15f;" horiz-adv-x="1024" />
<glyph unicode="&#x160;" horiz-adv-x="0" />
<glyph unicode="&#x161;" horiz-adv-x="0" />
<glyph unicode="&#x162;" horiz-adv-x="1251" />
<glyph unicode="&#x163;" horiz-adv-x="569" />
<glyph unicode="&#x164;" horiz-adv-x="1251" />
<glyph unicode="&#x165;" horiz-adv-x="768" />
<glyph unicode="&#x166;" horiz-adv-x="1251" />
<glyph unicode="&#x167;" horiz-adv-x="569" />
<glyph unicode="&#x168;" horiz-adv-x="1479" />
<glyph unicode="&#x169;" horiz-adv-x="1139" />
<glyph unicode="&#x16a;" horiz-adv-x="1479" />
<glyph unicode="&#x16b;" horiz-adv-x="1139" />
<glyph unicode="&#x16c;" horiz-adv-x="1479" />
<glyph unicode="&#x16d;" horiz-adv-x="1139" />
<glyph unicode="&#x16e;" horiz-adv-x="1479" />
<glyph unicode="&#x16f;" horiz-adv-x="1139" />
<glyph unicode="&#x170;" horiz-adv-x="1479" />
<glyph unicode="&#x171;" horiz-adv-x="1139" />
<glyph unicode="&#x172;" horiz-adv-x="1479" />
<glyph unicode="&#x173;" horiz-adv-x="1139" />
<glyph unicode="&#x174;" horiz-adv-x="1933" />
<glyph unicode="&#x175;" horiz-adv-x="1479" />
<glyph unicode="&#x176;" horiz-adv-x="1366" />
<glyph unicode="&#x177;" horiz-adv-x="1024" />
<glyph unicode="&#x178;" d="M821 1638l-168 -100l-157 100l157 129zM440 1638l-168 -100l-157 100l157 129zM891 731l-232 143v330l232 230v-703zM287 874l-230 -143v703l230 -230v-330zM831 717l-200 -101h-314l-202 101l202 129h314zM592 129l-119 -129l-117 129v444h236v-444z" />
<glyph unicode="&#x179;" horiz-adv-x="1251" />
<glyph unicode="&#x17a;" horiz-adv-x="1024" />
<glyph unicode="&#x17b;" horiz-adv-x="1251" />
<glyph unicode="&#x17c;" horiz-adv-x="1024" />
<glyph unicode="&#x17d;" d="M891 1434l-260 -230h-314l-131 129l101 101h604zM287 874l-230 -143v473l101 101l129 -129v-302zM831 717l-200 -101h-314l-202 101l202 129h314zM891 229l-103 -100l-129 129v330l232 114v-473zM760 100l-101 -100h-602l260 229h314zM831 1638l-200 -100h-314l-202 100 l202 129h314z" />
<glyph unicode="&#x17e;" d="M891 1434l-260 -230h-314l-131 129l101 101h604zM287 874l-230 -143v473l101 101l129 -129v-302zM831 717l-200 -101h-314l-202 101l202 129h314zM891 229l-103 -100l-129 129v330l232 114v-473zM760 100l-101 -100h-602l260 229h314zM831 1638l-200 -100h-314l-202 100 l202 129h314z" />
<glyph unicode="&#x17f;" horiz-adv-x="455" />
<glyph unicode="&#x192;" horiz-adv-x="1064" d="M1055 1319q0 -39 -31 -67.5t-76 -28.5q-33 0 -53 32q-25 31 -25 45l2 11l23 51l2 12q0 31 -43 31q-53 0 -98 -59.5t-58 -149.5l-41 -281l-4 -26h273l-21 -74h-260l-65 -528l-23 -99l-53 -237q-31 -135 -123 -258q-80 -103 -203 -103q-78 0 -127 41t-49 105 q0 45 28.5 75.5t73.5 30.5q37 0 60.5 -21.5t23.5 -53.5q0 -13 -16 -62l-8 -22l-2 -15v-10l12 -10h21q63 0 100 56t63 190l25 124l8 74l74 723h-250l29 74h237q33 266 140.5 418.5t267.5 152.5q67 0 116.5 -41t49.5 -100z" />
<glyph unicode="&#x1fa;" horiz-adv-x="1366" />
<glyph unicode="&#x1fb;" horiz-adv-x="1139" />
<glyph unicode="&#x1fc;" horiz-adv-x="2048" />
<glyph unicode="&#x1fd;" horiz-adv-x="1821" />
<glyph unicode="&#x1fe;" horiz-adv-x="1593" />
<glyph unicode="&#x1ff;" horiz-adv-x="1251" />
<glyph unicode="&#x2c6;" d="M891 731l-232 143v330l232 230v-703zM287 874l-230 -143v703l230 -230v-330zM891 229l-103 -100l-129 129v330l232 114v-473zM287 258l-129 -129l-101 100v473l230 -114v-330zM760 100l-101 -100h-372l-101 100l131 129h314zM831 1638l-200 -100h-314l-202 100l202 129 h314z" />
<glyph unicode="&#x2c7;" horiz-adv-x="0" d="M821 1638l-168 -100l-157 100l157 129zM440 1638l-168 -100l-157 100l157 129z" />
<glyph unicode="&#x2c9;" d="M831 1638l-200 -100h-314l-202 100l202 129h314z" />
<glyph unicode="&#x2d8;" d="M831 1638l-200 -100h-314l-202 100l202 129h314z" />
<glyph unicode="&#x2d9;" d="M831 1638l-200 -100h-314l-202 100l202 129h314z" />
<glyph unicode="&#x2da;" d="M831 1638l-200 -100h-314l-202 100l202 129h314z" />
<glyph unicode="&#x2db;" horiz-adv-x="860" d="M588 -297l-144 137l144 142v-279z" />
<glyph unicode="&#x2dc;" horiz-adv-x="344" d="M287 731l-230 143v330l230 230v-703zM287 0l-230 229v359l230 114v-702z" />
<glyph unicode="&#x2dd;" horiz-adv-x="0" d="M721 1638l-201 -100h-143l-201 100l201 129h143z" />
<glyph unicode="&#x384;" horiz-adv-x="682" />
<glyph unicode="&#x385;" horiz-adv-x="682" />
<glyph unicode="&#x386;" horiz-adv-x="1367" />
<glyph unicode="&#x387;" horiz-adv-x="569" />
<glyph unicode="&#x388;" horiz-adv-x="1606" />
<glyph unicode="&#x389;" horiz-adv-x="1716" />
<glyph unicode="&#x38a;" horiz-adv-x="786" />
<glyph unicode="&#x38c;" horiz-adv-x="1586" />
<glyph unicode="&#x38e;" horiz-adv-x="1752" />
<glyph unicode="&#x38f;" horiz-adv-x="1541" />
<glyph unicode="&#x390;" horiz-adv-x="455" />
<glyph unicode="&#x391;" horiz-adv-x="1366" />
<glyph unicode="&#x392;" horiz-adv-x="1366" />
<glyph unicode="&#x393;" horiz-adv-x="1128" />
<glyph unicode="&#x394;" horiz-adv-x="1368" />
<glyph unicode="&#x395;" horiz-adv-x="1366" />
<glyph unicode="&#x396;" horiz-adv-x="1251" />
<glyph unicode="&#x397;" horiz-adv-x="1479" />
<glyph unicode="&#x398;" horiz-adv-x="1593" />
<glyph unicode="&#x399;" horiz-adv-x="569" />
<glyph unicode="&#x39a;" horiz-adv-x="1366" />
<glyph unicode="&#x39b;" horiz-adv-x="1368" />
<glyph unicode="&#x39c;" horiz-adv-x="1706" />
<glyph unicode="&#x39d;" horiz-adv-x="1479" />
<glyph unicode="&#x39e;" horiz-adv-x="1331" />
<glyph unicode="&#x39f;" horiz-adv-x="1593" />
<glyph unicode="&#x3a0;" horiz-adv-x="1479" />
<glyph unicode="&#x3a1;" horiz-adv-x="1366" />
<glyph unicode="&#x3a3;" horiz-adv-x="1266" />
<glyph unicode="&#x3a4;" horiz-adv-x="1251" />
<glyph unicode="&#x3a5;" horiz-adv-x="1366" />
<glyph unicode="&#x3a6;" horiz-adv-x="1634" />
<glyph unicode="&#x3a7;" horiz-adv-x="1366" />
<glyph unicode="&#x3a8;" horiz-adv-x="1711" />
<glyph unicode="&#x3a9;" horiz-adv-x="1531" />
<glyph unicode="&#x3aa;" horiz-adv-x="569" />
<glyph unicode="&#x3ab;" horiz-adv-x="1366" />
<glyph unicode="&#x3ac;" horiz-adv-x="1184" />
<glyph unicode="&#x3ad;" horiz-adv-x="913" />
<glyph unicode="&#x3ae;" horiz-adv-x="1139" />
<glyph unicode="&#x3af;" horiz-adv-x="455" />
<glyph unicode="&#x3b0;" horiz-adv-x="1120" />
<glyph unicode="&#x3b1;" horiz-adv-x="1184" />
<glyph unicode="&#x3b2;" horiz-adv-x="1178" />
<glyph unicode="&#x3b3;" horiz-adv-x="1024" />
<glyph unicode="&#x3b4;" horiz-adv-x="1140" />
<glyph unicode="&#x3b5;" horiz-adv-x="913" />
<glyph unicode="&#x3b6;" horiz-adv-x="903" />
<glyph unicode="&#x3b7;" horiz-adv-x="1139" />
<glyph unicode="&#x3b8;" horiz-adv-x="1139" />
<glyph unicode="&#x3b9;" horiz-adv-x="455" />
<glyph unicode="&#x3ba;" horiz-adv-x="1024" />
<glyph unicode="&#x3bb;" horiz-adv-x="1024" />
<glyph unicode="&#x3bc;" horiz-adv-x="1180" />
<glyph unicode="&#x3bd;" horiz-adv-x="1024" />
<glyph unicode="&#x3be;" horiz-adv-x="917" />
<glyph unicode="&#x3bf;" horiz-adv-x="1139" />
<glyph unicode="&#x3c0;" horiz-adv-x="1413" />
<glyph unicode="&#x3c1;" horiz-adv-x="1165" />
<glyph unicode="&#x3c2;" horiz-adv-x="987" />
<glyph unicode="&#x3c3;" horiz-adv-x="1264" />
<glyph unicode="&#x3c4;" horiz-adv-x="809" />
<glyph unicode="&#x3c5;" horiz-adv-x="1120" />
<glyph unicode="&#x3c6;" horiz-adv-x="1328" />
<glyph unicode="&#x3c7;" horiz-adv-x="1075" />
<glyph unicode="&#x3c8;" horiz-adv-x="1460" />
<glyph unicode="&#x3c9;" horiz-adv-x="1599" />
<glyph unicode="&#x3ca;" horiz-adv-x="455" />
<glyph unicode="&#x3cb;" horiz-adv-x="1120" />
<glyph unicode="&#x3cc;" horiz-adv-x="1139" />
<glyph unicode="&#x3cd;" horiz-adv-x="1120" />
<glyph unicode="&#x3ce;" horiz-adv-x="1599" />
<glyph unicode="&#x3d6;" horiz-adv-x="1169" />
<glyph unicode="&#x401;" horiz-adv-x="1367" />
<glyph unicode="&#x402;" horiz-adv-x="1771" />
<glyph unicode="&#x403;" horiz-adv-x="1109" />
<glyph unicode="&#x404;" horiz-adv-x="1472" />
<glyph unicode="&#x405;" horiz-adv-x="1366" />
<glyph unicode="&#x406;" horiz-adv-x="569" />
<glyph unicode="&#x407;" horiz-adv-x="569" />
<glyph unicode="&#x408;" horiz-adv-x="1024" />
<glyph unicode="&#x409;" horiz-adv-x="2165" />
<glyph unicode="&#x40a;" horiz-adv-x="2069" />
<glyph unicode="&#x40b;" horiz-adv-x="1749" />
<glyph unicode="&#x40c;" horiz-adv-x="1193" />
<glyph unicode="&#x40e;" horiz-adv-x="1301" />
<glyph unicode="&#x40f;" horiz-adv-x="1472" />
<glyph unicode="&#x410;" horiz-adv-x="1366" />
<glyph unicode="&#x411;" horiz-adv-x="1344" />
<glyph unicode="&#x412;" horiz-adv-x="1366" />
<glyph unicode="&#x413;" horiz-adv-x="1109" />
<glyph unicode="&#x414;" horiz-adv-x="1387" />
<glyph unicode="&#x415;" horiz-adv-x="1366" />
<glyph unicode="&#x416;" horiz-adv-x="1891" />
<glyph unicode="&#x417;" horiz-adv-x="1237" />
<glyph unicode="&#x418;" horiz-adv-x="1472" />
<glyph unicode="&#x419;" horiz-adv-x="1472" />
<glyph unicode="&#x41a;" horiz-adv-x="1193" />
<glyph unicode="&#x41b;" horiz-adv-x="1344" />
<glyph unicode="&#x41c;" horiz-adv-x="1706" />
<glyph unicode="&#x41d;" horiz-adv-x="1479" />
<glyph unicode="&#x41e;" horiz-adv-x="1593" />
<glyph unicode="&#x41f;" horiz-adv-x="1472" />
<glyph unicode="&#x420;" horiz-adv-x="1366" />
<glyph unicode="&#x421;" horiz-adv-x="1479" />
<glyph unicode="&#x422;" horiz-adv-x="1251" />
<glyph unicode="&#x423;" horiz-adv-x="1301" />
<glyph unicode="&#x424;" horiz-adv-x="1557" />
<glyph unicode="&#x425;" horiz-adv-x="1366" />
<glyph unicode="&#x426;" horiz-adv-x="1515" />
<glyph unicode="&#x427;" horiz-adv-x="1365" />
<glyph unicode="&#x428;" horiz-adv-x="1877" />
<glyph unicode="&#x429;" horiz-adv-x="1920" />
<glyph unicode="&#x42a;" horiz-adv-x="1621" />
<glyph unicode="&#x42b;" horiz-adv-x="1813" />
<glyph unicode="&#x42c;" horiz-adv-x="1344" />
<glyph unicode="&#x42d;" horiz-adv-x="1472" />
<glyph unicode="&#x42e;" horiz-adv-x="2069" />
<glyph unicode="&#x42f;" horiz-adv-x="1479" />
<glyph unicode="&#x430;" horiz-adv-x="1139" />
<glyph unicode="&#x431;" horiz-adv-x="1173" />
<glyph unicode="&#x432;" horiz-adv-x="1088" />
<glyph unicode="&#x433;" horiz-adv-x="747" />
<glyph unicode="&#x434;" horiz-adv-x="1195" />
<glyph unicode="&#x435;" horiz-adv-x="1139" />
<glyph unicode="&#x436;" horiz-adv-x="1370" />
<glyph unicode="&#x437;" horiz-adv-x="939" />
<glyph unicode="&#x438;" horiz-adv-x="1144" />
<glyph unicode="&#x439;" horiz-adv-x="1144" />
<glyph unicode="&#x43a;" horiz-adv-x="896" />
<glyph unicode="&#x43b;" horiz-adv-x="1195" />
<glyph unicode="&#x43c;" horiz-adv-x="1408" />
<glyph unicode="&#x43d;" horiz-adv-x="1131" />
<glyph unicode="&#x43e;" horiz-adv-x="1139" />
<glyph unicode="&#x43f;" horiz-adv-x="1109" />
<glyph unicode="&#x440;" horiz-adv-x="1139" />
<glyph unicode="&#x441;" horiz-adv-x="1024" />
<glyph unicode="&#x442;" horiz-adv-x="938" />
<glyph unicode="&#x443;" horiz-adv-x="1024" />
<glyph unicode="&#x444;" horiz-adv-x="1685" />
<glyph unicode="&#x445;" horiz-adv-x="1024" />
<glyph unicode="&#x446;" horiz-adv-x="1173" />
<glyph unicode="&#x447;" horiz-adv-x="1067" />
<glyph unicode="&#x448;" horiz-adv-x="1643" />
<glyph unicode="&#x449;" horiz-adv-x="1685" />
<glyph unicode="&#x44a;" horiz-adv-x="1280" />
<glyph unicode="&#x44b;" horiz-adv-x="1472" />
<glyph unicode="&#x44c;" horiz-adv-x="1067" />
<glyph unicode="&#x44d;" horiz-adv-x="1045" />
<glyph unicode="&#x44e;" horiz-adv-x="1536" />
<glyph unicode="&#x44f;" horiz-adv-x="1109" />
<glyph unicode="&#x451;" horiz-adv-x="1139" />
<glyph unicode="&#x452;" horiz-adv-x="1139" />
<glyph unicode="&#x453;" horiz-adv-x="747" />
<glyph unicode="&#x454;" horiz-adv-x="1045" />
<glyph unicode="&#x455;" horiz-adv-x="1024" />
<glyph unicode="&#x456;" horiz-adv-x="455" />
<glyph unicode="&#x457;" horiz-adv-x="569" />
<glyph unicode="&#x458;" horiz-adv-x="455" />
<glyph unicode="&#x459;" horiz-adv-x="1856" />
<glyph unicode="&#x45a;" horiz-adv-x="1664" />
<glyph unicode="&#x45b;" horiz-adv-x="1139" />
<glyph unicode="&#x45c;" horiz-adv-x="896" />
<glyph unicode="&#x45e;" horiz-adv-x="1024" />
<glyph unicode="&#x45f;" horiz-adv-x="1131" />
<glyph unicode="&#x490;" horiz-adv-x="1001" />
<glyph unicode="&#x491;" horiz-adv-x="842" />
<glyph unicode="&#x1e80;" horiz-adv-x="1933" />
<glyph unicode="&#x1e81;" horiz-adv-x="1479" />
<glyph unicode="&#x1e82;" horiz-adv-x="1933" />
<glyph unicode="&#x1e83;" horiz-adv-x="1479" />
<glyph unicode="&#x1e84;" horiz-adv-x="1933" />
<glyph unicode="&#x1e85;" horiz-adv-x="1479" />
<glyph unicode="&#x1ef2;" horiz-adv-x="1366" />
<glyph unicode="&#x1ef3;" horiz-adv-x="1024" />
<glyph unicode="&#x2000;" horiz-adv-x="883" />
<glyph unicode="&#x2001;" horiz-adv-x="1767" />
<glyph unicode="&#x2002;" horiz-adv-x="883" />
<glyph unicode="&#x2003;" horiz-adv-x="1767" />
<glyph unicode="&#x2004;" horiz-adv-x="589" />
<glyph unicode="&#x2005;" horiz-adv-x="441" />
<glyph unicode="&#x2006;" horiz-adv-x="294" />
<glyph unicode="&#x2007;" horiz-adv-x="294" />
<glyph unicode="&#x2008;" horiz-adv-x="220" />
<glyph unicode="&#x2009;" horiz-adv-x="353" />
<glyph unicode="&#x200a;" horiz-adv-x="98" />
<glyph unicode="&#x2010;" horiz-adv-x="686" d="M659 836l-174 -226h-456l170 226h460z" />
<glyph unicode="&#x2011;" horiz-adv-x="686" d="M659 836l-174 -226h-456l170 226h460z" />
<glyph unicode="&#x2012;" horiz-adv-x="686" d="M659 836l-174 -226h-456l170 226h460z" />
<glyph unicode="&#x2013;" horiz-adv-x="1808" d="M1808 1434l-229 -230h-313l-232 230h774zM760 1333l-129 -129h-314l-131 129l101 101h372zM1235 874l-229 -143v674l229 -229v-302zM891 731l-232 143v302l129 129l103 -101v-473zM287 874l-230 -143v473l101 101l129 -129v-302zM1780 717l-201 -101h-313l-203 101 l203 129h313zM891 229l-103 -100l-129 129v330l232 114v-473zM287 258l-129 -129l-101 100v473l230 -114v-330zM1235 258l-229 -229v673l229 -114v-330zM1808 0h-774l232 229h313zM760 100l-101 -100h-372l-101 100l131 129h314z" />
<glyph unicode="&#x2014;" horiz-adv-x="819" d="M819 836l-94 -228h-725l96 228h723z" />
<glyph unicode="&#x2015;" horiz-adv-x="2048" />
<glyph unicode="&#x2017;" horiz-adv-x="1131" />
<glyph unicode="&#x2018;" horiz-adv-x="665" d="M621 846h-228v588h228v-588zM272 846h-229v588h229v-588z" />
<glyph unicode="&#x2019;" horiz-adv-x="317" d="M272 846h-229v588h229v-588z" />
<glyph unicode="&#x201a;" horiz-adv-x="409" d="M334 545h-230v358h230v-358z" />
<glyph unicode="&#x201b;" horiz-adv-x="455" />
<glyph unicode="&#x201c;" horiz-adv-x="1638" d="M1638 836l-94 -228h-1544l96 228h1542z" />
<glyph unicode="&#x201d;" horiz-adv-x="665" d="M621 846h-228v588h228v-588zM272 846h-229v588h229v-588z" />
<glyph unicode="&#x201e;" horiz-adv-x="0" />
<glyph unicode="&#x2020;" horiz-adv-x="0" />
<glyph unicode="&#x2021;" horiz-adv-x="0" />
<glyph unicode="&#x2022;" horiz-adv-x="724" d="M631 717q0 -113 -78 -190.5t-191 -77.5q-112 0 -190 77.5t-78 190.5q0 112 78 190t190 78q113 0 191 -78t78 -190z" />
<glyph unicode="&#x2026;" horiz-adv-x="1228" d="M1153 0h-229v358h229v-358zM743 0h-229v358h229v-358zM334 0h-230v358h230v-358z" />
<glyph unicode="&#x202f;" horiz-adv-x="353" />
<glyph unicode="&#x2030;" horiz-adv-x="0" />
<glyph unicode="&#x2032;" horiz-adv-x="384" />
<glyph unicode="&#x2033;" horiz-adv-x="725" />
<glyph unicode="&#x2039;" horiz-adv-x="1136" d="M1110 377l-143 -148l-179 172q-104 -61 -223 -61q-61 0 -116.5 15.5t-108.5 47.5l-166 -174l-145 148l166 174q-62 104 -62 223q0 62 15.5 117t48.5 108l-168 172l145 148l174 -174q101 61 217 61q123 0 226 -63l176 176l143 -148l-172 -174q61 -104 61 -223 q0 -61 -15 -115.5t-46 -107.5zM797 774q0 96 -67.5 164t-164.5 68q-96 0 -163.5 -68t-67.5 -164t67.5 -163.5t163.5 -67.5q97 0 164.5 67.5t67.5 163.5z" />
<glyph unicode="&#x203a;" horiz-adv-x="0" />
<glyph unicode="&#x203c;" horiz-adv-x="1024" />
<glyph unicode="&#x203e;" horiz-adv-x="682" />
<glyph unicode="&#x2044;" d="M821 1638l-168 -100l-157 100l157 129zM440 1638l-168 -100l-157 100l157 129zM891 731l-232 143v330l232 230v-703zM287 874l-230 -143v703l230 -230v-330zM831 717l-200 -101h-314l-202 101l202 129h314zM592 129l-119 -129l-117 129v444h236v-444z" />
<glyph unicode="&#x205f;" horiz-adv-x="441" />
<glyph unicode="&#x207f;" horiz-adv-x="747" />
<glyph unicode="&#x20a3;" horiz-adv-x="0" />
<glyph unicode="&#x20a4;" horiz-adv-x="1139" />
<glyph unicode="&#x20a7;" horiz-adv-x="2240" />
<glyph unicode="&#x20ac;" horiz-adv-x="1193" d="M1167 1434l-462 -752l-127 229l317 523h272zM680 641l-383 -641h-268l387 641h264z" />
<glyph unicode="&#x2105;" horiz-adv-x="1813" />
<glyph unicode="&#x2113;" horiz-adv-x="662" />
<glyph unicode="&#x2116;" horiz-adv-x="2197" />
<glyph unicode="&#x2122;" horiz-adv-x="2048" d="M489 651v694h-264v121h666v-121h-266v-694h-136zM982 651v815h200l206 -651l199 651h196v-815h-124v684l-210 -684h-123l-219 694v-694h-125z" />
<glyph unicode="&#x2126;" horiz-adv-x="1636" />
<glyph unicode="&#x212e;" horiz-adv-x="1229" />
<glyph unicode="&#x215b;" horiz-adv-x="1708" />
<glyph unicode="&#x215c;" horiz-adv-x="1708" />
<glyph unicode="&#x215d;" horiz-adv-x="1708" />
<glyph unicode="&#x215e;" horiz-adv-x="1708" />
<glyph unicode="&#x2190;" horiz-adv-x="2048" />
<glyph unicode="&#x2191;" horiz-adv-x="1024" />
<glyph unicode="&#x2192;" horiz-adv-x="2048" />
<glyph unicode="&#x2193;" horiz-adv-x="1024" />
<glyph unicode="&#x2194;" horiz-adv-x="2048" />
<glyph unicode="&#x2195;" horiz-adv-x="1024" />
<glyph unicode="&#x21a8;" horiz-adv-x="1024" />
<glyph unicode="&#x2202;" horiz-adv-x="1052" />
<glyph unicode="&#x2206;" horiz-adv-x="1302" />
<glyph unicode="&#x220f;" horiz-adv-x="1753" />
<glyph unicode="&#x2211;" horiz-adv-x="1519" />
<glyph unicode="&#x2212;" horiz-adv-x="0" />
<glyph unicode="&#x221a;" horiz-adv-x="1169" />
<glyph unicode="&#x221e;" horiz-adv-x="1519" />
<glyph unicode="&#x221f;" horiz-adv-x="2005" />
<glyph unicode="&#x2229;" horiz-adv-x="1472" />
<glyph unicode="&#x222b;" horiz-adv-x="583" />
<glyph unicode="&#x2248;" horiz-adv-x="1169" />
<glyph unicode="&#x2260;" horiz-adv-x="1169" />
<glyph unicode="&#x2261;" horiz-adv-x="1195" />
<glyph unicode="&#x2264;" horiz-adv-x="1169" />
<glyph unicode="&#x2265;" horiz-adv-x="1169" />
<glyph unicode="&#x2302;" horiz-adv-x="1237" />
<glyph unicode="&#x2310;" horiz-adv-x="1196" />
<glyph unicode="&#x2320;" horiz-adv-x="1237" />
<glyph unicode="&#x2321;" horiz-adv-x="1237" />
<glyph unicode="&#x2500;" horiz-adv-x="1451" />
<glyph unicode="&#x2502;" horiz-adv-x="1280" />
<glyph unicode="&#x250c;" horiz-adv-x="1451" />
<glyph unicode="&#x2510;" horiz-adv-x="1451" />
<glyph unicode="&#x2514;" horiz-adv-x="1451" />
<glyph unicode="&#x2518;" horiz-adv-x="1451" />
<glyph unicode="&#x251c;" horiz-adv-x="1451" />
<glyph unicode="&#x2524;" horiz-adv-x="1451" />
<glyph unicode="&#x252c;" horiz-adv-x="1451" />
<glyph unicode="&#x2534;" horiz-adv-x="1451" />
<glyph unicode="&#x253c;" horiz-adv-x="1451" />
<glyph unicode="&#x2550;" horiz-adv-x="1451" />
<glyph unicode="&#x2551;" horiz-adv-x="1451" />
<glyph unicode="&#x2552;" horiz-adv-x="1451" />
<glyph unicode="&#x2553;" horiz-adv-x="1451" />
<glyph unicode="&#x2554;" horiz-adv-x="1451" />
<glyph unicode="&#x2555;" horiz-adv-x="1451" />
<glyph unicode="&#x2556;" horiz-adv-x="1451" />
<glyph unicode="&#x2557;" horiz-adv-x="1451" />
<glyph unicode="&#x2558;" horiz-adv-x="1451" />
<glyph unicode="&#x2559;" horiz-adv-x="1451" />
<glyph unicode="&#x255a;" horiz-adv-x="1451" />
<glyph unicode="&#x255b;" horiz-adv-x="1451" />
<glyph unicode="&#x255c;" horiz-adv-x="1451" />
<glyph unicode="&#x255d;" horiz-adv-x="1451" />
<glyph unicode="&#x255e;" horiz-adv-x="1451" />
<glyph unicode="&#x255f;" horiz-adv-x="1451" />
<glyph unicode="&#x2560;" horiz-adv-x="1451" />
<glyph unicode="&#x2561;" horiz-adv-x="1451" />
<glyph unicode="&#x2562;" horiz-adv-x="1451" />
<glyph unicode="&#x2563;" horiz-adv-x="1451" />
<glyph unicode="&#x2564;" horiz-adv-x="1451" />
<glyph unicode="&#x2565;" horiz-adv-x="1451" />
<glyph unicode="&#x2566;" horiz-adv-x="1451" />
<glyph unicode="&#x2567;" horiz-adv-x="1451" />
<glyph unicode="&#x2568;" horiz-adv-x="1451" />
<glyph unicode="&#x2569;" horiz-adv-x="1451" />
<glyph unicode="&#x256a;" horiz-adv-x="1451" />
<glyph unicode="&#x256b;" horiz-adv-x="1451" />
<glyph unicode="&#x256c;" horiz-adv-x="1451" />
<glyph unicode="&#x2580;" horiz-adv-x="1451" />
<glyph unicode="&#x2584;" horiz-adv-x="1451" />
<glyph unicode="&#x2588;" horiz-adv-x="1451" />
<glyph unicode="&#x258c;" horiz-adv-x="1451" />
<glyph unicode="&#x2590;" horiz-adv-x="1451" />
<glyph unicode="&#x2591;" horiz-adv-x="1451" />
<glyph unicode="&#x2592;" horiz-adv-x="1451" />
<glyph unicode="&#x2593;" horiz-adv-x="1493" />
<glyph unicode="&#x25a0;" horiz-adv-x="1237" />
<glyph unicode="&#x25a1;" horiz-adv-x="1237" />
<glyph unicode="&#x25aa;" horiz-adv-x="726" />
<glyph unicode="&#x25ab;" horiz-adv-x="726" />
<glyph unicode="&#x25ac;" horiz-adv-x="2048" />
<glyph unicode="&#x25b2;" horiz-adv-x="2027" />
<glyph unicode="&#x25ba;" horiz-adv-x="2027" />
<glyph unicode="&#x25bc;" horiz-adv-x="2027" />
<glyph unicode="&#x25c4;" horiz-adv-x="2027" />
<glyph unicode="&#x25ca;" horiz-adv-x="1169" />
<glyph unicode="&#x25cb;" horiz-adv-x="1237" />
<glyph unicode="&#x25cf;" horiz-adv-x="1237" />
<glyph unicode="&#x25d8;" horiz-adv-x="1237" />
<glyph unicode="&#x25d9;" horiz-adv-x="1237" />
<glyph unicode="&#x25e6;" horiz-adv-x="726" />
<glyph unicode="&#x25fc;" horiz-adv-x="1435" d="M0 1435h1435v-1435h-1435v1435z" />
<glyph unicode="&#x263a;" horiz-adv-x="2091" />
<glyph unicode="&#x263b;" horiz-adv-x="2155" />
<glyph unicode="&#x263c;" horiz-adv-x="1877" />
<glyph unicode="&#x2640;" horiz-adv-x="1536" />
<glyph unicode="&#x2642;" horiz-adv-x="1536" />
<glyph unicode="&#x2660;" horiz-adv-x="1088" />
<glyph unicode="&#x2663;" horiz-adv-x="1344" />
<glyph unicode="&#x2665;" horiz-adv-x="1216" />
<glyph unicode="&#x2666;" horiz-adv-x="1045" />
<glyph unicode="&#x266a;" horiz-adv-x="1024" />
<glyph unicode="&#x266b;" horiz-adv-x="1536" />
<glyph unicode="&#xf004;" horiz-adv-x="682" />
<glyph unicode="&#xf005;" horiz-adv-x="682" />
<glyph unicode="&#xfb01;" horiz-adv-x="0" />
<glyph unicode="&#xfb02;" horiz-adv-x="0" />
</font>
</defs>
</svg>
